<svg width="25" height="24" viewBox="0 0 25 24" fill="none" xmlns="http://www.w3.org/2000/svg">
<path d="M12.5 18V5" stroke="black" stroke-width="1.5" stroke-linecap="round" stroke-linejoin="round"/>
<path d="M15.5 13C14.6348 12.7471 13.8748 12.2206 13.334 11.4995C12.7932 10.7784 12.5005 9.90141 12.5 9C12.4995 9.90141 12.2068 10.7784 11.666 11.4995C11.1252 12.2206 10.3652 12.7471 9.5 13" stroke="black" stroke-width="1.5" stroke-linecap="round" stroke-linejoin="round"/>
<path d="M18.098 6.50001C18.3281 6.1015 18.4635 5.65539 18.4936 5.1962C18.5237 4.73702 18.4478 4.27705 18.2717 3.8519C18.0956 3.42675 17.824 3.04781 17.4781 2.74439C17.1321 2.44097 16.721 2.22121 16.2765 2.1021C15.832 1.983 15.366 1.96775 14.9147 2.05753C14.4634 2.14731 14.0387 2.33971 13.6737 2.61986C13.3086 2.9 13.0129 3.26037 12.8093 3.6731C12.6058 4.08582 12.5 4.53984 12.5 5.00001C12.5 4.53984 12.3942 4.08582 12.1907 3.6731C11.9871 3.26037 11.6914 2.9 11.3263 2.61986C10.9613 2.33971 10.5366 2.14731 10.0853 2.05753C9.63396 1.96775 9.16803 1.983 8.72353 2.1021C8.27904 2.22121 7.8679 2.44097 7.52193 2.74439C7.17596 3.04781 6.90442 3.42675 6.72833 3.8519C6.55224 4.27705 6.47632 4.73702 6.50643 5.1962C6.53655 5.65539 6.67189 6.1015 6.902 6.50001" stroke="black" stroke-width="1.5" stroke-linecap="round" stroke-linejoin="round"/>
<path d="M18.4971 5.125C19.0849 5.27614 19.6306 5.55905 20.0928 5.95231C20.5551 6.34557 20.9218 6.83887 21.1652 7.39485C21.4086 7.95082 21.5223 8.55489 21.4977 9.16131C21.4731 9.76773 21.3108 10.3606 21.0231 10.895" stroke="black" stroke-width="1.5" stroke-linecap="round" stroke-linejoin="round"/>
<path d="M18.5 18C19.3805 18 20.2364 17.7094 20.9349 17.1734C21.6335 16.6373 22.1356 15.8858 22.3635 15.0353C22.5914 14.1848 22.5323 13.2829 22.1954 12.4694C21.8585 11.6559 21.2625 10.9763 20.5 10.536" stroke="black" stroke-width="1.5" stroke-linecap="round" stroke-linejoin="round"/>
<path d="M20.467 17.483C20.5371 18.0252 20.4953 18.5761 20.3441 19.1015C20.193 19.627 19.9357 20.1158 19.5882 20.538C19.2407 20.9601 18.8104 21.3065 18.3238 21.5558C17.8372 21.8051 17.3046 21.9519 16.759 21.9873C16.2134 22.0227 15.6664 21.9459 15.1516 21.7616C14.6369 21.5773 14.1654 21.2894 13.7662 20.9158C13.3671 20.5421 13.0488 20.0906 12.831 19.5891C12.6132 19.0876 12.5006 18.5467 12.5 18C12.4994 18.5467 12.3867 19.0876 12.169 19.5891C11.9512 20.0906 11.6329 20.5421 11.2338 20.9158C10.8346 21.2894 10.3631 21.5773 9.84838 21.7616C9.33364 21.9459 8.78657 22.0227 8.24097 21.9873C7.69537 21.9519 7.16283 21.8051 6.67622 21.5558C6.18961 21.3065 5.75927 20.9601 5.41178 20.538C5.06429 20.1158 4.80703 19.627 4.65589 19.1015C4.50474 18.5761 4.46291 18.0252 4.533 17.483" stroke="black" stroke-width="1.5" stroke-linecap="round" stroke-linejoin="round"/>
<path d="M6.49983 18C5.61932 18 4.76343 17.7094 4.06489 17.1734C3.36635 16.6373 2.8642 15.8858 2.6363 15.0353C2.40841 14.1848 2.46751 13.2829 2.80444 12.4694C3.14137 11.6559 3.73731 10.9763 4.49983 10.536" stroke="black" stroke-width="1.5" stroke-linecap="round" stroke-linejoin="round"/>
<path d="M6.50293 5.125C5.91513 5.27614 5.36943 5.55905 4.90716 5.95231C4.44489 6.34557 4.07817 6.83887 3.83477 7.39485C3.59138 7.95082 3.47769 8.55489 3.50232 9.16131C3.52695 9.76773 3.68925 10.3606 3.97693 10.895" stroke="black" stroke-width="1.5" stroke-linecap="round" stroke-linejoin="round"/>
</svg>
