<svg width="24" height="32" viewBox="0 0 24 32" fill="none" xmlns="http://www.w3.org/2000/svg">
<path d="M10.0649 16.6573L3.88491 18.4146C3.64503 18.4841 3.39429 18.4248 3.18694 18.2496C2.97959 18.0744 2.83229 17.7975 2.77691 17.4786L2.23991 14.612C2.17677 14.2666 2.21262 13.9022 2.34044 13.5902C2.46825 13.2782 2.67883 13.0411 2.93091 12.9253L16.4349 7.00531" stroke="white" stroke-width="1.5" stroke-linecap="round" stroke-linejoin="round"/>
<path d="M13.5601 15.6627L17.8921 14.4307" stroke="white" stroke-width="1.5" stroke-linecap="round" stroke-linejoin="round"/>
<path d="M16 28L12.895 19.72" stroke="white" stroke-width="1.5" stroke-linecap="round" stroke-linejoin="round"/>
<path d="M16.4849 7.92001C16.3564 7.23399 16.4375 6.50798 16.7103 5.90164C16.9832 5.2953 17.4255 4.85828 17.9399 4.68668L19.0299 4.32401C19.2871 4.23849 19.5591 4.29254 19.7864 4.47429C20.0136 4.65604 20.1775 4.95063 20.2419 5.29335L21.7569 13.3733C21.8214 13.7164 21.781 14.0795 21.6447 14.3828C21.5083 14.6861 21.2872 14.9047 21.0299 14.9907L19.9399 15.3533C19.4254 15.5247 18.8809 15.4167 18.4262 15.0529C17.9714 14.689 17.6436 14.0993 17.5149 13.4133L16.4849 7.92001Z" stroke="white" stroke-width="1.5" stroke-linecap="round" stroke-linejoin="round"/>
<path d="M6.1582 11.5107L7.2722 17.452" stroke="white" stroke-width="1.5" stroke-linecap="round" stroke-linejoin="round"/>
<path d="M8 28L11.105 19.72" stroke="white" stroke-width="1.5" stroke-linecap="round" stroke-linejoin="round"/>
<path d="M12 20C13.1046 20 14 18.8061 14 17.3334C14 15.8606 13.1046 14.6667 12 14.6667C10.8954 14.6667 10 15.8606 10 17.3334C10 18.8061 10.8954 20 12 20Z" stroke="white" stroke-width="1.5" stroke-linecap="round" stroke-linejoin="round"/>
</svg>
